<svg width="156" height="150" viewBox="0 0 156 150" fill="none" xmlns="http://www.w3.org/2000/svg">
<path d="M8.45 125.95H10.575L15.475 141H15.5L20.325 125.95H22.45L16.775 143H14.125L8.45 125.95ZM25.0926 125.95H27.1926V143H25.0926V125.95ZM35.7117 125.95H38.3117L44.1617 143H41.9867L40.4867 138.45H33.5617L32.0367 143H29.8617L35.7117 125.95ZM39.8117 136.45L37.0617 127.95H36.9867L34.2117 136.45H39.8117ZM49.2242 127.9H43.8742V125.95H56.6742V127.9H51.3242V143H49.2242V127.9ZM57.8102 134.475C57.8102 132.858 58.0602 131.492 58.5602 130.375C59.0768 129.258 59.7268 128.358 60.5102 127.675C61.3102 126.992 62.1935 126.5 63.1602 126.2C64.1435 125.883 65.1018 125.725 66.0352 125.725C66.9685 125.725 67.9185 125.858 68.8852 126.125C69.8685 126.375 70.7518 126.833 71.5352 127.5C72.3352 128.15 72.9852 129.042 73.4852 130.175C74.0018 131.308 74.2602 132.75 74.2602 134.5C74.2602 136.133 74.0018 137.508 73.4852 138.625C72.9852 139.742 72.3352 140.65 71.5352 141.35C70.7518 142.05 69.8685 142.558 68.8852 142.875C67.9185 143.175 66.9685 143.325 66.0352 143.325C65.1018 143.325 64.1435 143.175 63.1602 142.875C62.1935 142.575 61.3102 142.083 60.5102 141.4C59.7268 140.717 59.0768 139.808 58.5602 138.675C58.0602 137.542 57.8102 136.142 57.8102 134.475ZM71.8852 134.6C71.8852 132.35 71.3602 130.642 70.3102 129.475C69.2768 128.308 67.8852 127.725 66.1352 127.725C65.2518 127.725 64.4435 127.867 63.7102 128.15C62.9935 128.417 62.3685 128.825 61.8352 129.375C61.3185 129.925 60.9102 130.617 60.6102 131.45C60.3268 132.267 60.1852 133.233 60.1852 134.35C60.1852 136.6 60.7018 138.325 61.7352 139.525C62.7852 140.725 64.1852 141.325 65.9352 141.325C66.8018 141.325 67.6018 141.192 68.3352 140.925C69.0685 140.642 69.6935 140.217 70.2102 139.65C70.7435 139.083 71.1518 138.383 71.4352 137.55C71.7352 136.717 71.8852 135.733 71.8852 134.6ZM77.7293 125.95H81.9293C82.846 125.95 83.6793 126.033 84.4293 126.2C85.196 126.35 85.846 126.617 86.3793 127C86.9126 127.367 87.321 127.858 87.6043 128.475C87.8876 129.092 88.0293 129.867 88.0293 130.8C88.0126 131.833 87.8376 132.675 87.5043 133.325C87.171 133.958 86.7626 134.475 86.2793 134.875C85.796 135.258 85.2376 135.542 84.6043 135.725V135.775C84.671 135.842 84.771 135.967 84.9043 136.15C85.0543 136.317 85.1793 136.467 85.2793 136.6L90.1043 143H87.6293L82.6793 136.225H79.8293V143H77.7293V125.95ZM85.9043 131.15C85.9043 130.45 85.8126 129.883 85.6293 129.45C85.4626 129 85.2043 128.658 84.8543 128.425C84.521 128.192 84.1043 128.033 83.6043 127.95C83.1043 127.867 82.5376 127.825 81.9043 127.825H79.8293V134.35H82.3043C82.9543 134.35 83.5043 134.267 83.9543 134.1C84.4043 133.933 84.771 133.708 85.0543 133.425C85.3376 133.125 85.546 132.783 85.6793 132.4C85.8126 132.017 85.8876 131.6 85.9043 131.15ZM92.2068 125.95H102.657V127.875H94.3068V133.325H102.057V135.2H94.3068V141.075H102.907V143H92.2068V125.95ZM106.318 125.95H108.418V141H116.168V143H106.318V125.95ZM118.794 125.95H120.894V141H128.644V143H118.794V125.95ZM129.856 134.475C129.856 132.858 130.106 131.492 130.606 130.375C131.123 129.258 131.773 128.358 132.556 127.675C133.356 126.992 134.239 126.5 135.206 126.2C136.189 125.883 137.148 125.725 138.081 125.725C139.014 125.725 139.964 125.858 140.931 126.125C141.914 126.375 142.798 126.833 143.581 127.5C144.381 128.15 145.031 129.042 145.531 130.175C146.048 131.308 146.306 132.75 146.306 134.5C146.306 136.133 146.048 137.508 145.531 138.625C145.031 139.742 144.381 140.65 143.581 141.35C142.798 142.05 141.914 142.558 140.931 142.875C139.964 143.175 139.014 143.325 138.081 143.325C137.148 143.325 136.189 143.175 135.206 142.875C134.239 142.575 133.356 142.083 132.556 141.4C131.773 140.717 131.123 139.808 130.606 138.675C130.106 137.542 129.856 136.142 129.856 134.475ZM143.931 134.6C143.931 132.35 143.406 130.642 142.356 129.475C141.323 128.308 139.931 127.725 138.181 127.725C137.298 127.725 136.489 127.867 135.756 128.15C135.039 128.417 134.414 128.825 133.881 129.375C133.364 129.925 132.956 130.617 132.656 131.45C132.373 132.267 132.231 133.233 132.231 134.35C132.231 136.6 132.748 138.325 133.781 139.525C134.831 140.725 136.231 141.325 137.981 141.325C138.848 141.325 139.648 141.192 140.381 140.925C141.114 140.642 141.739 140.217 142.256 139.65C142.789 139.083 143.198 138.383 143.481 137.55C143.781 136.717 143.931 135.733 143.931 134.6Z" fill="black"/>
<path d="M1.0918 32.1172L77.0898 108.119V68.3848L76.8369 68.1318L76.8506 68.1172L9.83008 1.0918H9.8291V0.0917969H77.0898V0H78.0898V0.0917969H145.258V1.0918H144.178L144.732 1.64648L78.0898 68.292V108.037L154.065 32.0596L154.088 32.082V0H155.088V32.7676H154.771L77.5439 110L76.8369 109.293L76.8428 109.286L0.328125 32.7676H0.0917969V32.5312L0 32.4395L0.0917969 32.3477V0H1.0918V32.1172ZM77.0898 66.9414V1.0918H11.2441L77.0898 66.9414ZM78.0898 1.0918V66.8779L143.873 1.0918H78.0898Z" fill="black"/>
</svg>
