<svg width="156" height="150" viewBox="0 0 156 150" fill="none" xmlns="http://www.w3.org/2000/svg">
<path d="M1.0918 32.1172L77.0898 108.119V68.3848L76.8369 68.1318L76.8506 68.1172L9.83008 1.0918H9.8291V0.0917969H77.0898V0H78.0898V0.0917969H145.258V1.0918H144.178L144.732 1.64648L78.0898 68.292V108.037L154.065 32.0596L154.088 32.082V0H155.088V32.7676H154.771L77.5439 110L76.8369 109.293L76.8428 109.286L0.328125 32.7676H0.0917969V32.5312L0 32.4395L0.0917969 32.3477V0H1.0918V32.1172ZM77.0898 66.9414V1.0918H11.2441L77.0898 66.9414ZM78.0898 1.0918V66.8779L143.873 1.0918H78.0898Z" fill="black"/>
</svg>
