<svg width="200" height="200" viewBox="0 0 200 200" fill="none" xmlns="http://www.w3.org/2000/svg">
<path d="M77.381 94.8406C77.1316 96.3568 77.0001 97.913 77.0001 99.4998C77.0001 115.24 89.76 128 105.5 128C107.087 128 108.642 127.867 110.158 127.618L117.559 135.018C113.774 136.303 109.719 137 105.5 137C84.7894 137 68.0001 120.21 68.0001 99.4998C68.0001 95.2811 68.696 91.2248 69.9806 87.4402L77.381 94.8406ZM105.5 61.9998C126.211 61.9999 143 78.7893 143 99.4998C143 111.372 137.481 121.953 128.871 128.824L122.455 122.408C129.459 117.215 134 108.888 134 99.4998C134 83.7598 121.24 70.9999 105.5 70.9998C96.1114 70.9998 87.7835 75.5404 82.5909 82.5447L76.1749 76.1277C83.0461 67.5179 93.6282 61.9998 105.5 61.9998Z" fill="black"/>
<path d="M47.4083 64.8683C33.5657 71.9959 22.8918 80.984 11.8536 93.7198C8.81092 97.2307 8.81892 102.656 12.1466 106.367C23.0963 118.579 32.1848 126.798 42.6007 133.126C53.0346 139.465 65.2767 144.195 82.882 148.796C94.3758 151.8 106.391 152.019 117.779 149.227C121.693 148.267 125.344 147.272 128.774 146.234L135.942 153.401C131.032 155.035 125.727 156.545 119.923 157.968L118.71 158.254C106.567 161.021 93.9142 160.78 81.8146 157.81L80.6066 157.504C44.4919 148.065 27.964 137.49 5.44543 112.375C-0.795365 105.415 -1.0699 94.8898 5.05286 87.8253C16.2208 74.9397 27.1586 65.6119 40.7511 58.2111L47.4083 64.8683ZM78.5968 43.6847C92.7154 39.7734 107.722 39.6925 121.738 43.9552C152.251 53.2346 172.216 66.1111 193.483 87.5294C200.527 94.6242 200.668 105.992 193.954 113.401L191.934 115.609C177.916 130.795 165.667 140.948 148.584 148.538L141.725 141.679C147.523 139.307 152.635 136.696 157.366 133.754C167.717 127.319 176.703 119.034 187.285 107.357C190.856 103.417 190.694 97.4943 187.096 93.8702C166.792 73.4219 148.095 61.3776 119.119 52.5656C106.845 48.8329 93.5855 48.8711 81.0001 52.3575C72.9891 54.5769 65.8924 56.8923 59.4747 59.4288L52.5763 52.5304C59.8316 49.456 67.8654 46.7155 76.9874 44.1349L78.5968 43.6847Z" fill="black"/>
<rect x="47.5084" y="47.6378" width="12.3786" height="153.495" transform="rotate(-45 47.5084 47.6378)" fill="black"/>
</svg>
