<svg width="200" height="200" viewBox="0 0 200 200" fill="none" xmlns="http://www.w3.org/2000/svg">
<g clip-path="url(#clip0_82_322)">
<path d="M79.5381 43.6816C92.921 39.9707 107.089 39.9113 120.266 43.9209C150.36 53.0786 169.88 65.7027 190.9 86.9531C196.204 92.3146 196.354 100.941 191.229 106.615C180.39 118.617 170.987 127.366 160.02 134.207C149.066 141.039 136.327 146.106 118.682 150.435C106.501 153.423 93.6991 153.179 81.4912 149.985C63.4583 145.267 50.6256 140.342 39.5664 133.603C28.5157 126.869 18.9962 118.178 7.76562 105.609C2.99898 100.274 2.85795 92.3142 7.42383 87.0244C26.8153 64.5584 45.2873 53.1791 79.5381 43.6816Z" stroke="black" stroke-width="9"/>
<circle cx="99.5" cy="96.5" r="33" stroke="black" stroke-width="9"/>
</g>
<defs>
<clipPath id="clip0_82_322">
<rect width="200" height="200" fill="white"/>
</clipPath>
</defs>
</svg>
